<svg width="48" height="48" xmlns="http://www.w3.org/2000/svg" xml:space="preserve" version="1.1">

 <g>
  <title>Layer 1</title>
  <g stroke="null" id="Icons">
   <g stroke="null" id="Icons_4_">
    <g stroke="null" id="svg_1">
     <path stroke="null" id="svg_2" fill="#000000" d="m24.08427,0.24783c-13.16838,0 -23.83651,10.66813 -23.83651,23.82083c0,13.16823 10.66813,23.83636 23.83651,23.83636c13.1527,0 23.82083,-10.66813 23.82083,-23.83636c-0.00016,-13.1527 -10.66813,-23.82083 -23.82083,-23.82083zm9.03747,13.41669c0,0 -0.77643,-0.03106 -3.44719,0c-2.6088,0.03106 -2.64001,1.98766 -2.64001,2.08083l-0.03106,4.95361l6.11826,0.12423l-0.9005,6.32013l-5.1867,0l-0.15513,13.3701l-6.28907,0l-0.1865,-13.33904l-5.51264,-0.03106l0.13991,-6.44436l5.435,0l0,-4.65857c0.01553,-0.49691 0.06196,-0.99383 0.12423,-1.49074c0.1396,-1.087 0.43464,-2.174 0.94724,-3.1523c0.45017,-0.83854 1.07147,-1.58391 1.83237,-2.15847c0.77643,-0.59009 1.69246,-0.99383 2.63986,-1.24229c0.66773,-0.18634 1.35099,-0.31057 2.03424,-0.3261c0.88513,-0.03106 4.36353,0.07764 5.23313,0.09317l-0.15544,5.90086z"/>
    </g>
   </g>
  </g>
 </g>
</svg>