<svg width="48.00000000000001" height="48.00004" xmlns="http://www.w3.org/2000/svg" xml:space="preserve" version="1.1">

 <g>
  <title>Layer 1</title>
  <g stroke="null" id="Icons">
   <g stroke="null" id="Icons_4_">
    <g stroke="null" id="svg_1">
     <path stroke="null" id="svg_2" fill="#000000" d="m23.90733,-0.00758c-13.11088,0 -23.74508,10.63421 -23.74508,23.74493c0,13.12651 10.63421,23.76072 23.74508,23.76072c13.12636,0 23.76056,-10.63421 23.76056,-23.76072c0,-13.11072 -10.63421,-23.74493 -23.76056,-23.74493zm-6.73345,35.64858c0,0.27847 -0.0774,0.35587 -0.35602,0.35587l-4.44253,0c-0.27863,0 -0.3715,-0.0774 -0.35602,-0.35587l0,-15.71138c-0.01548,-0.27878 0.09288,-0.37166 0.35602,-0.35618l4.44253,0c0.2941,-0.01548 0.35602,0.0774 0.35602,0.35618l0,15.71138zm-2.56955,-18.18805c-1.64079,0.01548 -2.98748,-1.34669 -2.98748,-2.98748c0,-1.54792 1.20738,-2.97201 2.97201,-2.98748c1.67175,0 3.00296,1.25381 3.00296,2.98748c0,1.70256 -1.30025,2.97185 -2.98748,2.98748zm21.14458,18.54392l-4.34965,0c-0.35602,0 -0.3715,-0.01532 -0.3715,-0.38698l0,-7.94067c0,-0.75864 -0.01548,-1.50148 -0.23219,-2.229c-0.34054,-1.12998 -1.08354,-1.67175 -2.25996,-1.70271c-0.83588,-0.01563 -1.62532,0.13931 -2.229,0.78944c-0.46438,0.51081 -0.68108,1.14546 -0.75848,1.81091c-0.06176,0.60384 -0.10835,1.22301 -0.10835,1.84202c-0.01548,2.4923 -0.01548,4.98445 0,7.4766c0,0.26299 -0.0774,0.34039 -0.34039,0.34039l-4.47364,0c-0.26315,0 -0.35602,-0.0774 -0.35602,-0.34039c0.01548,-5.24745 0.01548,-10.49505 0,-15.74234c0,-0.27863 0.09288,-0.34054 0.35602,-0.34054l4.27241,0c0.27847,0 0.35587,0.09288 0.35587,0.35602c-0.01548,0.57273 0,1.16094 0,1.73367c0.80507,-1.17642 1.88846,-1.95038 3.25063,-2.27544c1.57888,-0.38698 3.14228,-0.27863 4.62828,0.3715c1.43972,0.61917 2.21368,1.79559 2.61598,3.25063c0.27878,0.94423 0.40246,1.91942 0.41794,2.91009c0.01548,3.20419 0.03096,6.42386 0.04659,9.62806c-0.00015,0.44874 -0.00015,0.44874 -0.46453,0.44874z"/>
    </g>
   </g>
  </g>
 </g>
</svg>